<?xml version="1.0" standalone="no"?>
<!DOCTYPE svg PUBLIC "-//W3C//DTD SVG 20010904//EN"
 "http://www.w3.org/TR/2001/REC-SVG-20010904/DTD/svg10.dtd">
<svg version="1.0" xmlns="http://www.w3.org/2000/svg"
 width="640.000000pt" height="640.000000pt" viewBox="0 0 640.000000 640.000000"
 preserveAspectRatio="xMidYMid meet">
<metadata>
Created by potrace 1.14, written by Peter Selinger 2001-2017
</metadata>
<g transform="translate(0.000000,640.000000) scale(0.100000,-0.100000)"
fill="#000000" stroke="none">
<path d="M0 6116 c0 -188 4 -287 10 -291 7 -4 8 -11 2 -18 -15 -19 -11 -95 4
-101 8 -3 14 -15 14 -27 0 -15 -5 -19 -15 -15 -9 3 -15 0 -15 -10 0 -8 4 -13
9 -9 5 3 12 1 16 -5 3 -5 -1 -10 -9 -10 -22 0 -20 -17 2 -23 16 -4 16 -5 0 -6
-17 -1 -18 -141 -18 -2801 l0 -2800 3200 0 3200 0 0 3200 0 3200 -1769 0
-1770 0 5 -33 c2 -17 9 -133 14 -257 6 -124 13 -250 16 -280 2 -30 11 -129 19
-220 8 -91 17 -202 21 -248 l6 -84 -27 4 c-16 2 -33 12 -39 23 -6 11 -14 22
-18 25 -4 3 -12 69 -18 145 -6 77 -13 163 -16 190 -2 28 -11 163 -19 300 -8
138 -18 292 -21 343 l-7 92 -109 0 -110 0 5 -157 c5 -154 5 -157 -9 -98 -11
41 -12 66 -5 81 5 13 6 25 0 31 -5 5 -10 34 -12 65 -3 30 -7 61 -11 67 -5 8
-94 11 -297 11 l-291 0 7 -32 c4 -18 12 -39 19 -47 8 -11 8 -15 -1 -18 -14 -5
-18 -79 -5 -87 9 -5 7 -64 -2 -73 -3 -4 -2 -11 3 -17 4 -6 11 -42 15 -81 10
-108 16 -159 21 -173 3 -7 1 -10 -4 -7 -18 11 -22 -16 -7 -47 18 -35 20 -48 7
-48 -16 0 -31 84 -35 201 -4 89 -9 125 -24 150 -14 26 -17 41 -10 67 6 24 5
38 -4 50 -11 13 -11 14 1 7 11 -6 13 -4 8 9 -13 34 -20 69 -26 134 -1 9 -45
12 -185 12 -138 0 -186 -3 -189 -12 -4 -10 -6 -10 -6 0 -1 9 -57 12 -246 12
l-246 0 12 -21 c6 -12 9 -28 7 -38 -3 -9 1 -59 8 -111 10 -80 10 -97 -2 -106
-8 -6 -14 -16 -14 -23 0 -6 -10 -11 -21 -11 -18 0 -21 5 -17 32 3 18 1 45 -5
61 -7 22 -6 32 7 46 15 16 15 19 1 31 -13 10 -15 9 -15 -9 0 -22 -7 -25 -35
-15 -13 6 -14 9 -3 16 10 7 10 11 1 15 -9 3 -13 27 -13 69 l0 64 -174 0 c-158
0 -175 -2 -179 -17 -4 -17 -5 -17 -6 0 -1 11 -9 17 -23 17 -17 0 -19 -3 -10
-12 31 -31 0 -38 -38 -8 -23 18 -42 20 -267 20 l-243 0 0 -284z m1542 229 c3
-14 1 -25 -3 -25 -5 0 -9 11 -9 25 0 14 2 25 4 25 2 0 6 -11 8 -25z m-945 -17
c-3 -7 -5 -2 -5 12 0 14 2 19 5 13 2 -7 2 -19 0 -25z m-61 5 c3 -10 9 -25 13
-33 5 -8 6 -30 3 -48 -3 -26 -1 -32 14 -33 17 -1 17 -2 2 -6 -19 -5 -22 -26
-8 -58 8 -18 9 -18 9 -2 1 10 6 15 12 12 14 -10 7 -38 -11 -41 -8 -1 -22 -5
-31 -9 -15 -5 -17 4 -16 81 0 58 -4 89 -11 92 -13 4 -16 44 -5 55 11 12 23 8
29 -10z m1014 -60 c0 -22 -2 -25 -10 -13 -13 20 -13 40 0 40 6 0 10 -12 10
-27z m1417 5 c-3 -8 -6 -5 -6 6 -1 11 2 17 5 13 3 -3 4 -12 1 -19z m-2390 -30
c-3 -7 -5 -2 -5 12 0 14 2 19 5 13 2 -7 2 -19 0 -25z m30 0 c-3 -8 -6 -5 -6 6
-1 11 2 17 5 13 3 -3 4 -12 1 -19z m943 -40 c0 -23 -3 -29 -9 -19 -8 12 -4 51
5 51 2 0 4 -15 4 -32z m-930 -25 c0 -22 -2 -25 -10 -13 -13 20 -13 40 0 40 6
0 10 -12 10 -27z m370 -39 c0 -2 -3 -4 -7 -4 -10 0 -32 48 -25 54 4 5 32 -39
32 -50z m563 1 c4 -8 2 -17 -3 -20 -6 -4 -10 3 -10 14 0 25 6 27 13 6z m-966
-57 c-2 -7 -12 -12 -21 -12 -16 2 -16 1 0 -17 14 -15 14 -21 4 -34 -10 -12 -9
-16 4 -21 9 -3 13 -10 10 -15 -3 -5 -10 -7 -15 -4 -13 8 -11 2 6 -31 10 -20
11 -30 3 -35 -6 -4 -7 -12 -3 -18 4 -7 1 -18 -5 -26 -14 -16 -5 -35 16 -35 9
0 14 -10 13 -32 -1 -24 -3 -27 -6 -11 -2 13 -14 29 -25 37 -17 12 -20 22 -15
50 3 22 1 37 -6 40 -9 5 -9 7 1 12 17 8 15 31 -3 38 -17 6 -21 36 -5 36 6 0
10 11 10 25 0 14 -4 25 -10 25 -5 0 -10 9 -10 20 0 16 7 20 31 20 20 0 29 -4
26 -12z m479 -32 c-6 -35 -4 -45 9 -50 9 -3 13 -10 10 -16 -4 -6 -11 -8 -16
-5 -5 4 -9 2 -9 -3 0 -5 10 -12 22 -16 22 -5 22 -6 3 -20 -14 -11 -16 -18 -9
-23 15 -11 28 -83 14 -83 -5 0 -10 9 -10 20 0 11 -4 20 -10 20 -5 0 -7 -6 -4
-14 3 -8 1 -17 -5 -21 -6 -3 -11 0 -11 9 0 8 -3 21 -6 30 -4 11 -1 16 10 16 9
0 16 5 16 10 0 6 -9 10 -21 10 -19 0 -19 1 -4 17 16 16 16 17 -4 25 -11 4 -21
11 -21 15 -1 4 -3 25 -6 46 -4 29 -2 37 10 37 8 0 18 9 21 20 12 39 27 21 21
-24z m1934 15 c0 -6 -4 -13 -10 -16 -5 -3 -10 1 -10 9 0 9 5 16 10 16 6 0 10
-4 10 -9z m-420 -38 c0 -7 -4 -13 -10 -13 -5 0 -10 12 -10 28 0 21 2 24 10 12
5 -8 10 -21 10 -27z m-1000 -50 c0 -43 -9 -39 -15 6 -2 17 1 31 6 31 5 0 9
-16 9 -37z m1407 -5 c-3 -8 -6 -5 -6 6 -1 11 2 17 5 13 3 -3 4 -12 1 -19z
m-397 -3 c0 -8 -7 -15 -15 -15 -16 0 -20 12 -8 23 11 12 23 8 23 -8z m410 -29
c0 -3 -4 -8 -10 -11 -5 -3 -10 -1 -10 4 0 6 5 11 10 11 6 0 10 -2 10 -4z
m-419 -8 c8 -33 8 -88 0 -88 -6 0 -11 13 -11 29 0 16 -3 36 -6 45 -3 9 -1 16
5 16 6 0 11 -1 12 -2z m-1483 -130 c13 -27 14 -158 1 -158 -14 0 -30 38 -19
45 6 4 3 16 -7 31 -11 17 -13 28 -5 36 6 6 7 21 2 39 -11 36 11 41 28 7z
m1502 -18 c0 -5 -4 -10 -10 -10 -5 0 -10 5 -10 10 0 6 5 10 10 10 6 0 10 -4
10 -10z m-590 -72 c0 -49 -5 -47 -13 5 -3 20 -2 37 4 37 5 0 9 -19 9 -42z
m589 15 c0 -25 -1 -26 -9 -8 -12 27 -12 35 0 35 6 0 10 -12 9 -27z m-1989 -16
c0 -20 -1 -20 -16 -5 -9 9 -13 21 -9 27 10 16 25 3 25 -22z m3167 -24 c-3 -10
-5 -4 -5 12 0 17 2 24 5 18 2 -7 2 -21 0 -30z m-1765 -108 c-7 -11 -20 29 -20
60 0 12 5 6 12 -15 8 -19 11 -39 8 -45z m-1394 -5 c0 -9 -3 -7 -8 5 -5 11 -8
29 -8 40 0 16 2 15 8 -5 4 -14 8 -32 8 -40z m482 40 c0 -5 -7 -10 -15 -10 -8
0 -15 5 -15 10 0 6 7 10 15 10 8 0 15 -4 15 -10z m-10 -30 c0 -5 -4 -10 -9
-10 -6 0 -13 5 -16 10 -3 6 1 10 9 10 9 0 16 -4 16 -10z m28 -40 c-1 -32 -8
-36 -39 -19 -20 10 -20 11 -3 30 25 28 43 24 42 -11z m910 -7 c-4 -22 -22 -20
-26 1 -2 10 3 16 13 16 10 0 15 -7 13 -17z m592 -19 c0 -8 -5 -12 -10 -9 -6 4
-8 11 -5 16 9 14 15 11 15 -7z m-1476 -48 c-9 -68 -12 -71 -34 -51 -10 9 -16
23 -13 31 3 8 0 14 -6 14 -6 0 -8 7 -5 15 4 8 1 15 -5 15 -6 0 -11 3 -11 8 0
4 18 8 40 8 l40 1 -6 -41z m886 4 c0 -5 -4 -10 -10 -10 -5 0 -10 5 -10 10 0 6
5 10 10 10 6 0 10 -4 10 -10z m590 -55 c0 -8 -4 -15 -10 -15 -5 0 -10 7 -10
15 0 8 5 15 10 15 6 0 10 -7 10 -15z m-590 -11 c0 -8 -4 -12 -10 -9 -5 3 -10
10 -10 16 0 5 5 9 10 9 6 0 10 -7 10 -16z m-882 -32 c-15 -3 -22 -42 -7 -42 3
0 6 -13 7 -30 0 -16 -4 -30 -9 -30 -5 0 -9 8 -9 18 0 14 -2 15 -10 2 -5 -8
-12 -11 -16 -7 -4 3 -1 13 6 22 10 12 10 18 0 30 -10 12 -10 15 0 15 7 0 10 6
7 14 -6 15 20 27 38 17 6 -3 2 -7 -7 -9z m-518 -8 c0 -8 5 -12 10 -9 6 3 10 1
10 -4 0 -6 -6 -11 -12 -11 -22 0 -41 17 -34 29 10 16 26 13 26 -5z m-4 -60
c-3 -9 -6 -23 -7 -32 -1 -10 -4 -7 -8 8 -9 28 -5 40 11 40 5 0 7 -7 4 -16z
m1424 2 c0 -8 -4 -18 -10 -21 -5 -3 -10 3 -10 14 0 12 5 21 10 21 6 0 10 -6
10 -14z m-1376 -22 c4 -10 1 -14 -6 -12 -15 5 -23 28 -10 28 5 0 13 -7 16 -16z
m486 -34 c0 -5 -2 -10 -4 -10 -3 0 -8 5 -11 10 -3 6 -1 10 4 10 6 0 11 -4 11
-10z m-20 -22 c0 -6 7 -16 16 -23 9 -6 15 -20 13 -30 -4 -18 -6 -18 -27 5 -22
23 -32 77 -12 65 6 -3 10 -11 10 -17z m907 -25 c-3 -10 -5 -2 -5 17 0 19 2 27
5 18 2 -10 2 -26 0 -35z m-1420 -105 c-3 -8 -6 -5 -6 6 -1 11 2 17 5 13 3 -3
4 -12 1 -19z m1033 12 c0 -5 -4 -10 -10 -10 -5 0 -10 5 -10 10 0 6 5 10 10 10
6 0 10 -4 10 -10z m-480 -14 c0 -8 -5 -18 -11 -22 -14 -8 -33 11 -25 25 10 16
36 13 36 -3z m900 -52 c-4 -16 -9 -24 -9 -19 -1 6 -5 27 -10 48 -9 38 -9 39 9
19 15 -15 17 -26 10 -48z m753 -89 c15 -1 30 -4 35 -5 4 -1 15 -2 24 -1 9 1
22 -7 28 -18 6 -12 17 -21 25 -21 22 0 63 -46 70 -80 4 -16 11 -30 16 -30 6 0
8 -28 5 -70 -5 -69 -4 -72 34 -132 22 -33 40 -71 40 -84 0 -12 9 -60 20 -106
11 -46 20 -95 20 -110 0 -15 4 -29 8 -32 5 -3 6 33 4 80 -4 71 -2 84 11 84 8
0 29 12 46 26 36 30 66 25 75 -13 4 -14 5 -28 1 -31 -3 -3 -5 2 -5 11 0 18
-33 40 -44 30 -9 -9 -7 -41 3 -45 4 -1 18 -28 30 -58 21 -53 21 -54 16 -15 -3
22 0 47 6 55 15 21 6 -259 -10 -288 -15 -28 -52 -29 -76 -2 -22 24 -37 22 -41
-6 -1 -10 -7 -36 -12 -57 -6 -20 -8 -47 -6 -60 4 -21 4 -21 -5 -2 -9 19 -10
19 -10 -2 -1 -21 -17 -40 -27 -30 -2 2 0 15 5 29 7 19 6 29 -4 39 -9 8 -12 23
-9 37 7 26 24 30 24 5 0 -13 3 -14 11 -6 15 15 -11 43 -40 43 -27 0 -92 -40
-85 -51 3 -6 1 -16 -6 -24 -9 -10 -7 -16 6 -23 17 -9 17 -11 1 -35 -10 -16
-30 -29 -51 -33 -29 -5 -41 -1 -72 22 -40 31 -65 35 -231 37 -63 1 -86 -3
-100 -16 -15 -13 -69 -18 -80 -7 -2 1 -9 3 -15 4 -7 0 -17 11 -23 24 -5 12
-18 22 -27 22 -10 0 -25 11 -34 25 -9 14 -22 25 -29 25 -7 0 -24 11 -38 24
-22 21 -26 22 -30 8 -4 -19 -32 72 -40 130 -7 48 13 79 40 60 30 -21 97 -52
114 -52 9 0 33 14 54 30 41 33 50 36 61 19 4 -8 13 -1 22 17 18 33 19 34 30
91 5 24 15 50 22 58 21 25 -6 43 -87 60 -79 17 -176 13 -240 -10 -9 -3 -13 5
-13 23 1 28 20 62 37 62 5 0 16 11 23 25 7 14 17 25 22 25 4 0 8 5 8 10 0 6
-16 10 -35 10 -19 0 -35 5 -35 10 0 6 7 10 15 10 8 0 15 5 15 11 0 6 -9 8 -20
4 -25 -8 -26 7 -3 41 9 14 24 38 32 54 19 32 67 90 76 90 3 0 18 9 33 19 23
17 127 56 197 74 17 5 121 1 218 -8z m-1646 -77 c-3 -7 -5 -2 -5 12 0 14 2 19
5 13 2 -7 2 -19 0 -25z m3 -63 c0 -8 -4 -15 -10 -15 -5 0 -10 7 -10 15 0 8 5
15 10 15 6 0 10 -7 10 -15z m910 -6 c0 -5 -4 -9 -10 -9 -5 0 -10 7 -10 16 0 8
5 12 10 9 6 -3 10 -10 10 -16z m-9 -42 c-10 -9 -11 -8 -5 6 3 10 9 15 12 12 3
-3 0 -11 -7 -18z m-865 -13 c-4 -9 -1 -23 5 -30 9 -11 8 -14 -4 -14 -20 0 -27
20 -15 43 11 22 22 23 14 1z m889 -66 c11 -52 9 -78 -6 -78 -6 0 -8 8 -5 18 3
9 2 32 -3 50 -6 19 -6 32 0 32 5 0 11 -10 14 -22z m-885 2 c-32 -7 -33 -7 -7
-9 33 -1 27 -21 -6 -22 -12 0 -16 -3 -9 -6 6 -2 12 -14 12 -26 0 -21 0 -21
-14 -1 -13 18 -20 47 -17 67 0 4 18 6 39 6 l37 -2 -35 -7z m912 -110 c2 -16
-1 -31 -7 -33 -7 -3 -9 7 -7 29 5 42 8 43 14 4z m-1395 -12 c-3 -8 -6 -5 -6 6
-1 11 2 17 5 13 3 -3 4 -12 1 -19z m513 12 c0 -5 -2 -10 -4 -10 -3 0 -8 5 -11
10 -3 6 -1 10 4 10 6 0 11 -4 11 -10z m-60 -10 c0 -5 -2 -10 -4 -10 -3 0 -8 5
-11 10 -3 6 -1 10 4 10 6 0 11 -4 11 -10z m954 -55 c-4 -8 -10 -12 -15 -9 -14
8 -10 24 6 24 9 0 12 -6 9 -15z m-889 -25 c3 -5 2 -10 -4 -10 -5 0 -13 5 -16
10 -3 6 -2 10 4 10 5 0 13 -4 16 -10z m-8 -46 c-4 -4 -16 2 -27 13 -25 27 -12
40 14 14 11 -11 17 -24 13 -27z m-8 -51 c0 -34 -1 -36 -11 -16 -6 12 -8 29 -5
37 11 27 17 18 16 -21z m896 -21 c6 -52 -2 -65 -24 -38 -9 10 -9 16 -1 21 7 4
8 11 2 18 -9 12 3 65 13 56 2 -3 7 -28 10 -57z m288 31 c-7 -2 -21 -2 -30 0
-10 3 -4 5 12 5 17 0 24 -2 18 -5z m-211 -60 c18 -16 25 -53 10 -53 -4 0 -16
9 -25 21 -10 11 -25 18 -33 15 -12 -4 -12 -2 -4 14 13 24 28 25 52 3z m268 11
c0 -11 -29 -34 -42 -33 -10 0 -10 2 0 6 6 2 12 11 12 19 0 8 7 14 15 14 8 0
15 -3 15 -6z m-1200 -24 c0 -5 -12 -10 -26 -10 -14 0 -23 4 -19 10 3 6 15 10
26 10 10 0 19 -4 19 -10z m865 -30 c-3 -5 -1 -10 4 -10 6 0 11 -12 11 -26 0
-14 -4 -23 -10 -19 -5 3 -10 1 -10 -4 0 -6 -4 -11 -9 -11 -5 0 -11 18 -13 40
-3 34 -1 40 15 40 10 0 15 -4 12 -10z m-425 -16 c0 -8 -4 -12 -10 -9 -5 3 -10
10 -10 16 0 5 5 9 10 9 6 0 10 -7 10 -16z m-962 -35 c-3 -8 -7 -3 -11 10 -4
17 -3 21 5 13 5 -5 8 -16 6 -23z m6 -34 c3 -8 1 -15 -4 -15 -6 0 -10 7 -10 15
0 8 2 15 4 15 2 0 6 -7 10 -15z m1393 -27 c-3 -7 -5 -2 -5 12 0 14 2 19 5 13
2 -7 2 -19 0 -25z m-867 12 c0 -5 -4 -10 -10 -10 -5 0 -10 5 -10 10 0 6 5 10
10 10 6 0 10 -4 10 -10z m920 -68 c1 -9 7 -30 15 -47 l15 -30 -5 40 -4 40 13
-35 c8 -20 10 -39 5 -44 -13 -15 -11 -26 6 -26 28 0 17 -38 -15 -48 l-30 -11
1 47 c0 26 -4 68 -9 94 -5 26 -5 45 -1 42 5 -3 9 -13 9 -22z m-40 -19 c0 -25
-15 -12 -17 14 -1 19 1 22 8 12 5 -8 9 -20 9 -26z m-420 -54 c0 -10 -4 -19
-10 -19 -5 0 -10 12 -10 26 0 14 4 23 10 19 6 -3 10 -15 10 -26z m1060 -136
c8 -3 21 -7 28 -9 33 -6 56 -44 27 -44 -8 0 -15 -4 -15 -10 0 -5 5 -10 10 -10
6 0 10 -4 10 -8 0 -5 -13 -8 -30 -7 -16 1 -27 -2 -24 -7 3 -4 20 -8 37 -8 33
0 77 -23 77 -41 0 -5 -7 -9 -15 -9 -8 0 -15 -5 -15 -10 0 -6 -12 -20 -26 -33
-22 -19 -38 -22 -112 -23 -48 -1 -94 -2 -102 -3 -40 -5 -100 15 -100 34 0 15
24 25 150 62 52 15 87 29 78 31 -20 4 -24 17 -8 27 28 17 1 23 -78 18 -103 -7
-128 1 -106 32 13 17 16 18 24 5 5 -8 10 -10 10 -4 0 24 129 36 180 17z m338
-183 c-3 -132 -4 -136 -37 -197 -38 -67 -60 -81 -85 -52 -9 11 -23 19 -31 19
-8 0 -15 5 -15 10 0 14 17 12 45 -6 l24 -15 -12 37 c-8 25 -8 39 -1 41 5 2 8
19 6 37 -5 42 4 71 92 301 l11 30 3 -35 c2 -19 2 -96 0 -170z m-1828 170 c0
-5 -4 -10 -10 -10 -5 0 -10 5 -10 10 0 6 5 10 10 10 6 0 10 -4 10 -10z m35
-130 c3 -5 1 -10 -4 -10 -6 0 -11 5 -11 10 0 6 2 10 4 10 3 0 8 -4 11 -10z
m855 -65 c0 -5 -5 -3 -10 5 -5 8 -10 20 -10 25 0 6 5 3 10 -5 5 -8 10 -19 10
-25z m817 -97 c-3 -8 -6 -5 -6 6 -1 11 2 17 5 13 3 -3 4 -12 1 -19z m13 -168
c0 -5 -7 -7 -15 -4 -8 4 -12 10 -9 15 6 11 24 2 24 -11z m-1643 -57 c-3 -10
-5 -4 -5 12 0 17 2 24 5 18 2 -7 2 -21 0 -30z m846 -60 c7 -9 5 -13 -6 -13 -8
0 -17 9 -20 19 -5 22 5 40 12 19 2 -7 8 -19 14 -25z m-846 -165 c-3 -8 -6 -5
-6 6 -1 11 2 17 5 13 3 -3 4 -12 1 -19z m1284 -40 c15 -14 34 -22 48 -20 13 2
28 -4 35 -14 8 -10 20 -15 30 -11 28 11 17 -7 -26 -40 -41 -33 -58 -40 -58
-24 0 5 -18 31 -40 57 -22 27 -40 54 -40 61 0 20 25 15 51 -9z m-1221 -107 c0
-5 3 -17 7 -27 4 -11 3 -15 -4 -11 -14 9 -24 47 -12 47 5 0 9 -4 9 -9z m1914
-63 c15 -24 -3 -52 -37 -56 -30 -4 -44 26 -27 58 13 25 48 24 64 -2z m-1277
-2208 c-5 -33 -122 -84 -137 -59 -22 34 36 76 107 78 28 1 32 -2 30 -19z m-17
-105 c0 -2 -21 -13 -47 -25 -27 -12 -54 -29 -60 -38 -7 -9 -13 -11 -13 -5 0
17 34 50 48 45 7 -2 11 2 10 8 -2 7 3 15 11 18 9 3 11 0 7 -9 -4 -8 -1 -7 5 2
10 14 39 16 39 4z m2341 -41 c56 -30 69 -41 69 -60 0 -13 -4 -24 -10 -24 -5 0
-10 -6 -10 -14 0 -14 -21 -26 -45 -26 -8 0 -39 23 -69 51 -55 51 -55 51 -40
80 8 16 19 29 25 29 6 0 42 -16 80 -36z m-2301 10 c0 -16 29 -63 62 -98 16
-18 16 -21 -1 -55 -10 -20 -27 -55 -38 -79 -14 -29 -24 -39 -29 -31 -5 9 -10
7 -16 -7 -5 -13 -6 -9 -2 13 4 23 0 35 -13 45 -33 25 -43 54 -32 88 13 36 6
48 -15 31 -13 -11 -16 -7 -24 21 -11 40 -9 44 32 69 38 23 76 25 76 3z m1120
-169 c-43 -17 -50 -17 -50 -6 0 11 24 19 60 19 21 0 20 -1 -10 -13z m1016 -34
c35 -25 93 -94 65 -77 -6 4 -11 0 -11 -8 0 -9 -4 -16 -10 -16 -5 0 -10 -11
-10 -25 0 -14 -6 -28 -14 -31 -8 -3 -15 -13 -15 -22 0 -31 -6 -47 -29 -70 -12
-12 -22 -30 -22 -40 0 -10 -9 -27 -19 -39 -11 -11 -21 -31 -23 -44 -1 -13 -7
-23 -13 -23 -11 2 -38 48 -50 84 -4 13 -28 56 -52 96 -40 65 -43 75 -32 96 16
31 37 45 75 53 17 3 47 20 65 38 19 17 37 31 41 30 4 -2 5 4 2 12 -9 23 9 18
52 -14z m214 23 c0 -3 -13 -23 -28 -43 -16 -20 -32 -45 -37 -56 -5 -14 -9 -16
-12 -7 -5 14 56 112 70 112 4 0 7 -3 7 -6z m-1613 -60 c-3 -3 -12 -4 -19 -1
-8 3 -5 6 6 6 11 1 17 -2 13 -5z m39 -92 c9 -14 8 -18 -5 -18 -9 0 -17 8 -17
18 0 10 3 18 6 18 3 0 10 -8 16 -18z m49 -30 c-3 -3 -11 0 -18 7 -9 10 -8 11
6 5 10 -3 15 -9 12 -12z"/>
<path d="M2795 4572 c-44 -7 -87 -20 -96 -28 -8 -8 -23 -14 -31 -14 -9 0 -23
-11 -32 -25 -18 -28 -20 -35 -7 -35 6 0 43 -33 83 -73 68 -68 77 -73 120 -75
47 -3 118 19 118 36 0 5 -13 12 -29 15 -24 5 -28 10 -24 27 3 11 10 20 15 20
6 0 8 -7 4 -15 -6 -17 9 -21 19 -5 3 6 24 10 46 10 34 0 39 3 39 24 0 21 -8
26 -65 40 -35 9 -76 16 -90 16 -14 0 -25 5 -25 10 0 6 7 10 16 10 8 0 38 7 65
16 40 13 55 14 75 5 22 -10 25 -9 22 6 -4 24 -54 47 -103 47 -22 1 -76 -5
-120 -12z m142 -115 c4 -7 0 -8 -11 -4 -10 4 -36 7 -59 8 -34 1 -37 2 -17 8
31 9 78 2 87 -12z m-113 -63 c4 -11 1 -14 -11 -12 -9 2 -18 9 -21 16 -6 18 25
15 32 -4z"/>
<path d="M3185 4340 c-11 -17 23 -59 45 -57 25 2 25 2 -1 38 -22 31 -34 36
-44 19z"/>
<path d="M3131 4231 c-1 -28 3 -41 8 -35 6 5 6 24 1 44 l-8 35 -1 -44z"/>
<path d="M3281 4250 c-1 -8 -4 -26 -7 -40 -5 -22 -4 -23 6 -7 6 10 9 28 7 40
-2 12 -5 15 -6 7z"/>
<path d="M2555 4151 c-3 -6 -15 -11 -26 -11 -10 0 -19 -5 -19 -10 0 -18 37
-84 57 -103 19 -16 21 -16 38 3 19 21 45 27 45 10 0 -20 19 -9 22 13 2 15 17
28 45 42 58 26 61 42 12 55 -32 9 -42 8 -55 -5 -9 -8 -19 -13 -23 -11 -4 3
-18 7 -32 10 -13 2 -31 7 -40 11 -10 3 -20 2 -24 -4z"/>
<path d="M985 6311 c-3 -5 -1 -12 4 -15 5 -3 11 1 15 9 6 16 -9 21 -19 6z"/>
</g>
</svg>
